# xmcd
#
# Track frame offsets:
# 150
# 18936
# 36067
# 53677
# 69590
# 85352
# 103436
# 120335
# 135541
# 155805
# 171497
# 189937
# 204193
# 218830
# 237505
# 252657
#
# Disc length: 3598 seconds
#
#
# Revision: 0
# Processed by: cddbd v1.5.2PL0 Copyright (c) Steve Scherf et al.
# Submitted via: FreeRIP 2.96 
#
DISCID=e40e0c10
DTITLE=Eduardo Costa - Eduardo Costa - Ao vivo 2007
DYEAR=2007
DGENRE=Country
TTITLE0=Não preciso de você
TTITLE1=Me apaixonei
TTITLE2=Linda demais
TTITLE3=Na saideira
TTITLE4=Passou
TTITLE5=Minha estrela perdida
TTITLE6=Olhando nos teus olhos
TTITLE7=A gente se enrosca
TTITLE8=Separação
TTITLE9=Não acredito
TTITLE10=Amor de violeiro
TTITLE11=Me engana que eu gosto
TTITLE12=Eu quero esse amor
TTITLE13=Eu sou desejo, você é paixão
TTITLE14=Cena de um filme
TTITLE15=ILusão
EXTD=
EXTT0=
EXTT1=
EXTT2=
EXTT3=
EXTT4=
EXTT5=
EXTT6=
EXTT7=
EXTT8=
EXTT9=
EXTT10=
EXTT11=
EXTT12=
EXTT13=
EXTT14=
EXTT15=
PLAYORDER=
